<?xml version="1.0" encoding="UTF-8"?>
<svg version="1.1" xmlns="http://www.w3.org/2000/svg" width="100" height="100">
<path d="M0 0 C33 0 66 0 100 0 C100 33 100 66 100 100 C67 100 34 100 0 100 C0 67 0 34 0 0 Z " fill="#FEFEFE" transform="translate(0,0)"/>
<path d="M0 0 C2.375 1.625 2.375 1.625 4 4 C4.59075079 7.54450475 4.46538786 9.25133257 2.5625 12.3125 C-0.18127357 14.11937528 -1.37190416 14.26616154 -4.5625 14.5 C-8.08838364 14.7575535 -8.08838364 14.7575535 -11.125 16.5 C-12.48368008 20.38194309 -11.82884877 24.02459571 -11 28 C-10.505 28.99 -10.505 28.99 -10 30 C-9.43035623 37.21913927 -9.88896581 42.51867877 -13 49 C-13.41890218 52.21061788 -13.41890218 52.21061788 -13 55 C-10.53721199 57.46278801 -8.29323018 57.99771255 -5 59 C-4.375 61.375 -4.375 61.375 -4 64 C-6 66 -6 66 -8.4375 66.125 C-11 65 -11 65 -11.9921875 63.14453125 C-12.74746973 61.11246238 -13.41523047 59.08710424 -14 57 C-17.66195623 56.73205198 -19.77561024 56.89229291 -23.125 58.5 C-28.88748131 61.15176131 -35.65256575 61.17789416 -41.59765625 59.0859375 C-47.84648226 55.85198748 -51.34188787 51.91599031 -54.8125 45.8125 C-56.7929643 39.45416724 -57.21652525 32.96782446 -54.5 26.75 C-51.37865068 21.3706533 -46.72119419 17.42244242 -41.25 14.5625 C-34.66526295 13.42283397 -27.99742803 12.7964049 -22 16 C-19.12840435 16.47400619 -16.96837752 16.28270262 -14 16 C-10.56312592 12.52325499 -10.28882393 8.90278471 -9.625 4.2421875 C-8.27427242 -0.60354771 -4.29485399 -0.52590049 0 0 Z " fill="#2C2626" transform="translate(76,14)"/>
<path d="M0 0 C3.36825277 2.24550185 3.46015972 2.74060415 4.4375 6.4375 C5.42087306 10.11067565 5.42087306 10.11067565 8.25 12.5 C8.8275 12.995 9.405 13.49 10 14 C10.22856769 18.64168241 9.58074051 22.12888924 7 26 C6.34 26 5.68 26 5 26 C4.93941406 25.14535156 4.87882812 24.29070313 4.81640625 23.41015625 C4.69072266 21.75306641 4.69072266 21.75306641 4.5625 20.0625 C4.48128906 18.96035156 4.40007813 17.85820313 4.31640625 16.72265625 C4.29581916 14.08890097 4.29581916 14.08890097 3 13 C1.00041636 12.95919217 -1.00045254 12.95745644 -3 13 C-3.25030977 15.41619823 -3.25030977 15.41619823 -3 18 C-2.01 18.66 -1.02 19.32 0 20 C0.1875 23.125 0.1875 23.125 0 26 C-1.32 26 -2.64 26 -4 26 C-4 25.34 -4 24.68 -4 24 C-5.32 24 -6.64 24 -8 24 C-7.484375 24.4125 -6.96875 24.825 -6.4375 25.25 C-5.963125 25.8275 -5.48875 26.405 -5 27 C-5.25146579 29.13745922 -5.45925779 30.45925779 -7 32 C-10.62707551 32.59217559 -13.04114261 32.62774117 -16.171875 30.578125 C-20.18482494 27.15100717 -23.62117666 24.21442747 -24.265625 18.74609375 C-24.25789063 17.60333984 -24.25789063 17.60333984 -24.25 16.4375 C-24.25773437 15.29087891 -24.25773437 15.29087891 -24.265625 14.12109375 C-24 12 -24 12 -22 9 C-18.875 8.8125 -18.875 8.8125 -16 9 C-15.34 11.31 -14.68 13.62 -14 16 C-12.68 15.67 -11.36 15.34 -10 15 C-10.70427717 10.64210263 -10.70427717 10.64210263 -11.8125 6.375 C-12 4 -12 4 -10.5625 1.6875 C-6.80266946 -0.78848596 -4.46639433 -0.42537089 0 0 Z " fill="#FAF1E5" transform="translate(50,35)"/>
<path d="M0 0 C1.03125 -0.01417969 2.0625 -0.02835938 3.125 -0.04296875 C6.02346769 0.18938124 7.49950439 0.80592364 10 2.1875 C12.32495277 2.57499213 14.65851268 2.91732839 17 3.1875 C17.495 5.6625 17.495 5.6625 18 8.1875 C15.69 8.1875 13.38 8.1875 11 8.1875 C12.09660771 10.46506986 13.24438044 12.56346991 14.625 14.6875 C16 17.1875 16 17.1875 16 21.1875 C12.1519937 19.7279114 10.78793456 17.84850886 9 14.1875 C8.65939189 12.52230481 8.32441604 10.85592534 8 9.1875 C5.47524538 7.92512269 3.68799534 8.08893596 0.875 8.125 C-0.03507812 8.13402344 -0.94515625 8.14304687 -1.8828125 8.15234375 C-2.93082031 8.16974609 -2.93082031 8.16974609 -4 8.1875 C-4.9774373 12.48822413 -4.98453016 14.34247282 -3 18.1875 C-3.375 20.9375 -3.375 20.9375 -4 23.1875 C-5.875 23.8125 -5.875 23.8125 -8 24.1875 C-10 22.1875 -10 22.1875 -10.125 19.0625 C-10.08375 18.11375 -10.0425 17.165 -10 16.1875 C-13.96 16.6825 -13.96 16.6825 -18 17.1875 C-20.20986359 11.78561123 -20.20986359 11.78561123 -19.296875 9.18359375 C-17.81494215 6.90266698 -16.3139676 5.60661961 -14.125 4 C-13.44695313 3.49082031 -12.76890625 2.98164063 -12.0703125 2.45703125 C-8.15571467 0.05657032 -4.53219154 0.0283262 0 0 Z " fill="#292322" transform="translate(44,27.8125)"/>
<path d="M0 0 C2.375 1.625 2.375 1.625 4 4 C4.59075079 7.54450475 4.46538786 9.25133257 2.5625 12.3125 C-0.18127357 14.11937528 -1.37190416 14.26616154 -4.5625 14.5 C-8.08838364 14.7575535 -8.08838364 14.7575535 -11.125 16.5 C-12.48368008 20.38194309 -11.82884877 24.02459571 -11 28 C-10.67 28.66 -10.34 29.32 -10 30 C-9.44506816 37.03269384 -9.59672576 42.7606639 -13 49 C-14.32 49 -15.64 49 -17 49 C-17.33 49.66 -17.66 50.32 -18 51 C-19.1875 49.375 -19.1875 49.375 -20 47 C-19.54625 46.13375 -19.0925 45.2675 -18.625 44.375 C-16.44179672 39.84065472 -16.11440971 35.95303598 -17 31 C-18.43580005 28.40879182 -20.14470254 26.33101476 -22 24 C-21.505 22.515 -21.505 22.515 -21 21 C-19.02 21 -17.04 21 -15 21 C-14.896875 20.2575 -14.79375 19.515 -14.6875 18.75 C-14 16 -14 16 -12.51953125 14.1484375 C-10.31424656 11.03042573 -10.15437334 7.95882952 -9.625 4.2421875 C-8.27427242 -0.60354771 -4.29485399 -0.52590049 0 0 Z " fill="#2A2527" transform="translate(76,14)"/>
<path d="M0 0 C2.375 1.625 2.375 1.625 4 4 C4.59075079 7.54450475 4.46538786 9.25133257 2.5625 12.3125 C-0.65852064 14.43365993 -3.17991459 14.56258767 -6.9765625 14.7265625 C-9.22652641 14.8224976 -9.22652641 14.8224976 -11 17 C-11.99 16.67 -12.98 16.34 -14 16 C-13.525625 15.44570313 -13.05125 14.89140625 -12.5625 14.3203125 C-10.38563622 11.08766978 -10.16608282 8.04103979 -9.625 4.2421875 C-8.27427242 -0.60354771 -4.29485399 -0.52590049 0 0 Z " fill="#2D2A2C" transform="translate(76,14)"/>
<path d="M0 0 C3.0625 0.1875 3.0625 0.1875 5.0625 2.1875 C5.36309943 4.55259361 5.55765012 6.93191881 5.6875 9.3125 C5.76226562 10.59382813 5.83703125 11.87515625 5.9140625 13.1953125 C5.98753906 14.67644531 5.98753906 14.67644531 6.0625 16.1875 C1.32038047 19.45429345 -1.84015996 21.33383826 -7.625 21.25 C-8.83736328 21.23646484 -8.83736328 21.23646484 -10.07421875 21.22265625 C-10.68910156 21.21105469 -11.30398437 21.19945313 -11.9375 21.1875 C-11.9375 20.8575 -11.9375 20.5275 -11.9375 20.1875 C-10.968125 19.919375 -9.99875 19.65125 -9 19.375 C-7.989375 18.983125 -6.97875 18.59125 -5.9375 18.1875 C-5.6075 17.1975 -5.2775 16.2075 -4.9375 15.1875 C-5.9275 14.8575 -6.9175 14.5275 -7.9375 14.1875 C-7.9375 13.5275 -7.9375 12.8675 -7.9375 12.1875 C-6.6175 12.1875 -5.2975 12.1875 -3.9375 12.1875 C-3.6075 12.8475 -3.2775 13.5075 -2.9375 14.1875 C-2.2775 14.1875 -1.6175 14.1875 -0.9375 14.1875 C-0.6075 12.2075 -0.2775 10.2275 0.0625 8.1875 C-1.2575 7.5275 -2.5775 6.8675 -3.9375 6.1875 C-3.980221 4.52138095 -3.97813832 2.85367115 -3.9375 1.1875 C-2.9375 0.1875 -2.9375 0.1875 0 0 Z " fill="#DC712A" transform="translate(49.9375,46.8125)"/>
<path d="M0 0 C1.21236328 0.01353516 1.21236328 0.01353516 2.44921875 0.02734375 C3.37154297 0.04474609 3.37154297 0.04474609 4.3125 0.0625 C4.3125 0.3925 4.3125 0.7225 4.3125 1.0625 C1.6725 1.3925 -0.9675 1.7225 -3.6875 2.0625 C-4.6649373 6.36322413 -4.67203016 8.21747282 -2.6875 12.0625 C-3.0625 14.8125 -3.0625 14.8125 -3.6875 17.0625 C-5.5625 17.6875 -5.5625 17.6875 -7.6875 18.0625 C-9.6875 16.0625 -9.6875 16.0625 -9.8125 12.9375 C-9.77125 11.98875 -9.73 11.04 -9.6875 10.0625 C-11.6675 10.0625 -13.6475 10.0625 -15.6875 10.0625 C-14.32981796 5.17484467 -12.01715579 3.53658902 -7.6875 1.0625 C-4.80538698 0.10179566 -2.98899956 -0.04331883 0 0 Z " fill="#E87222" transform="translate(43.6875,33.9375)"/>
<path d="M0 0 C2.97 0.33 5.94 0.66 9 1 C9.33 2.65 9.66 4.3 10 6 C7.69 6 5.38 6 3 6 C4.09660771 8.27756986 5.24438044 10.37596991 6.625 12.5 C8 15 8 15 8 19 C4.1519937 17.5404114 2.78793456 15.66100886 1 12 C0.65179959 10.33637583 0.31595508 8.67004829 0 7 C-0.66 6.34 -1.32 5.68 -2 5 C-1.34 3.35 -0.68 1.7 0 0 Z " fill="#282426" transform="translate(52,30)"/>
<path d="M0 0 C1.258125 -0.04125 2.51625 -0.0825 3.8125 -0.125 C4.52019531 -0.14820313 5.22789063 -0.17140625 5.95703125 -0.1953125 C8 0 8 0 11 2 C11.40843923 4.71203652 11.13336867 7.2437142 11 10 C9.35 10 7.7 10 6 10 C6 8.68 6 7.36 6 6 C4.576875 6.2784375 4.576875 6.2784375 3.125 6.5625 C0 7 0 7 -2 6 C-1.34 4.02 -0.68 2.04 0 0 Z " fill="#FDF7EF" transform="translate(42,35)"/>
<path d="M0 0 C3 1 3 1 4 3 C4.33 2.67 4.66 2.34 5 2 C6.68608966 1.92794489 8.37500659 1.91613932 10.0625 1.9375 C10.98160156 1.94652344 11.90070312 1.95554688 12.84765625 1.96484375 C13.55792969 1.97644531 14.26820312 1.98804688 15 2 C15 2.33 15 2.66 15 3 C14.02160156 3.14695313 14.02160156 3.14695313 13.0234375 3.296875 C7.52004149 4.23845898 3.31860053 5.22122453 -1 9 C-2.41190564 11.60437233 -2.41190564 11.60437233 -3 14 C-3.66 14 -4.32 14 -5 14 C-7.17857143 8.67460317 -7.17857143 8.67460317 -6.4375 5.875 C-4.54484436 3.40631874 -2.59694713 1.71018469 0 0 Z " fill="#2C211C" transform="translate(31,31)"/>
<path d="M0 0 C2.31 0.33 4.62 0.66 7 1 C8.20568053 5.67201205 8.09382426 10.21496292 8 15 C7.01 15 6.02 15 5 15 C5 15.66 5 16.32 5 17 C3.68 17.33 2.36 17.66 1 18 C1 17.01 1 16.02 1 15 C1.99 14.67 2.98 14.34 4 14 C4.33397787 11.12586875 4.33397787 11.12586875 4 8 C2.68662604 6.9739266 1.35335895 5.97272675 0 5 C-0.25 2.3125 -0.25 2.3125 0 0 Z " fill="#F66B12" transform="translate(46,48)"/>
<path d="M0 0 C0.99 0 1.98 0 3 0 C3 3.63 3 7.26 3 11 C2.01 11 1.02 11 0 11 C0 13.31 0 15.62 0 18 C-0.226875 17.484375 -0.45375 16.96875 -0.6875 16.4375 C-2.21152528 13.60716733 -4.08367853 11.20120659 -6.07421875 8.68359375 C-6.53248047 7.85021484 -6.53248047 7.85021484 -7 7 C-6.67 6.01 -6.34 5.02 -6 4 C-4.02 4 -2.04 4 0 4 C0 2.68 0 1.36 0 0 Z " fill="#271E1B" transform="translate(61,31)"/>
<path d="M0 0 C3 0.125 3 0.125 4 1.125 C4.1875 4.0625 4.1875 4.0625 4 7.125 C3.34 7.785 2.68 8.445 2 9.125 C-1.29714793 8.79528521 -2.6226839 8.5023161 -5 6.125 C-4.27477017 0.17811542 -4.27477017 0.17811542 0 0 Z " fill="#EFD2B8" transform="translate(73,16.875)"/>
<path d="M0 0 C2.375 -0.125 2.375 -0.125 5 0 C5.66 0.66 6.32 1.32 7 2 C8.98356483 2.71408334 10.98315437 3.38617742 13 4 C13.625 6.375 13.625 6.375 14 9 C12 11 12 11 9.5625 11.125 C7 10 7 10 6.1484375 8.21484375 C5.67238373 6.77360404 5.20891827 5.32814836 4.7578125 3.87890625 C4.1131262 1.78098294 4.1131262 1.78098294 1.8125 0.5 C1.214375 0.335 0.61625 0.17 0 0 Z " fill="#3F3D3E" transform="translate(58,69)"/>
<path d="M0 0 C0.99 0.33 1.98 0.66 3 1 C3.6953125 2.99609375 3.6953125 2.99609375 4.125 5.4375 C4.73123617 8.8273078 4.73123617 8.8273078 6 12 C3.69 12.33 1.38 12.66 -1 13 C-1.33 12.01 -1.66 11.02 -2 10 C-2.66 9.67 -3.32 9.34 -4 9 C-4 8.34 -4 7.68 -4 7 C-3.34 6.67 -2.68 6.34 -2 6 C-1.27306096 4.02111039 -0.60183749 2.02045442 0 0 Z " fill="#FDFBF8" transform="translate(42,46)"/>
<path d="M0 0 C1.2065625 0.0309375 1.2065625 0.0309375 2.4375 0.0625 C3.4275 2.3725 4.4175 4.6825 5.4375 7.0625 C2.7975 7.3925 0.1575 7.7225 -2.5625 8.0625 C-2.94313221 5.7364143 -3.27519945 3.40194736 -3.5625 1.0625 C-2.5625 0.0625 -2.5625 0.0625 0 0 Z " fill="#FEEAD4" transform="translate(37.5625,54.9375)"/>
<path d="M0 0 C1.65 0 3.3 0 5 0 C4.88541307 1.43836751 4.75790884 2.87570966 4.625 4.3125 C4.55539063 5.11300781 4.48578125 5.91351563 4.4140625 6.73828125 C4 9 4 9 2 12 C1.34 12 0.68 12 0 12 C0 8.04 0 4.08 0 0 Z " fill="#FBF2E2" transform="translate(55,49)"/>
<path d="M0 0 C2.375 1.625 2.375 1.625 4 4 C4.25 7.25 4.25 7.25 4 10 C3.01 9.67 2.02 9.34 1 9 C0.67 7.35 0.34 5.7 0 4 C-3.94727588 3.82057837 -6.5980513 3.90649311 -10 6 C-7.92315486 0.21450282 -6.21759409 -0.62175941 0 0 Z " fill="#424041" transform="translate(76,14)"/>
<path d="M0 0 C2.64752004 2.57784846 4.94432065 4.91648098 7 8 C7 9.32 7 10.64 7 12 C3.16674584 10.54600704 1.71720395 8.6919885 0 5 C-0.1875 2.1875 -0.1875 2.1875 0 0 Z " fill="#D46C25" transform="translate(53,37)"/>
<path d="M0 0 C0.66 0.33 1.32 0.66 2 1 C1.34 2.32 0.68 3.64 0 5 C1.98 5 3.96 5 6 5 C6 6.32 6 7.64 6 9 C5.01 9 4.02 9 3 9 C2.34 10.32 1.68 11.64 1 13 C-2.06707855 6.62047661 -2.06707855 6.62047661 -1.75 3.6875 C-1.19742351 2.44420289 -0.60846174 1.21692349 0 0 Z " fill="#F4CDA9" transform="translate(40,36)"/>
<path d="M0 0 C2.625 0.375 2.625 0.375 5 1 C4.125 4.875 4.125 4.875 3 6 C0.66702567 6.04092937 -1.66705225 6.04241723 -4 6 C-2.84826645 3.53199953 -1.95216435 1.95216435 0 0 Z " fill="#FBF0E1" transform="translate(40,61)"/>
<path d="M0 0 C0.66 0 1.32 0 2 0 C2 2.97 2 5.94 2 9 C1.01 9 0.02 9 -1 9 C-1 9.66 -1 10.32 -1 11 C-2.32 11.33 -3.64 11.66 -5 12 C-5 11.01 -5 10.02 -5 9 C-4.01 8.67 -3.02 8.34 -2 8 C-1.855625 6.865625 -1.71125 5.73125 -1.5625 4.5625 C-1 1 -1 1 0 0 Z " fill="#FA6505" transform="translate(52,54)"/>
<path d="M0 0 C0.99 0.33 1.98 0.66 3 1 C3.33 4.63 3.66 8.26 4 12 C2.68 12 1.36 12 0 12 C0.020625 11.05125 0.04125 10.1025 0.0625 9.125 C0.22551826 6.09333717 0.22551826 6.09333717 -1 4 C-0.5625 1.875 -0.5625 1.875 0 0 Z " fill="#FB6603" transform="translate(35,37)"/>
<path d="M0 0 C1.65 0 3.3 0 5 0 C5 1.65 5 3.3 5 5 C3.35 5 1.7 5 0 5 C0 3.35 0 1.7 0 0 Z " fill="#E5752A" transform="translate(34,56)"/>
<path d="M0 0 C0.66 0 1.32 0 2 0 C2 2.31 2 4.62 2 7 C0.02 7.99 -1.96 8.98 -4 10 C-4 9.01 -4 8.02 -4 7 C-3.34 7 -2.68 7 -2 7 C-2 6.01 -2 5.02 -2 4 C-1.34 3.67 -0.68 3.34 0 3 C0 2.01 0 1.02 0 0 Z " fill="#201D1C" transform="translate(64,47)"/>
<path d="M0 0 C0.66 0.33 1.32 0.66 2 1 C2.66 0.67 3.32 0.34 4 0 C4.66 0.33 5.32 0.66 6 1 C5.67 1.99 5.34 2.98 5 4 C2.03 4 -0.94 4 -4 4 C-2.68 2.68 -1.36 1.36 0 0 Z " fill="#2D1C13" transform="translate(56,62)"/>
<path d="M0 0 C0 0.33 0 0.66 0 1 C-0.66386719 1.12117188 -1.32773437 1.24234375 -2.01171875 1.3671875 C-6.53424459 2.22547708 -10.79938524 3.03971311 -15 5 C-15 4.01 -15 3.02 -15 2 C-10.13948404 -0.59227518 -5.34728867 -0.18689553 0 0 Z " fill="#49200A" transform="translate(46,33)"/>
<path d="M0 0 C-0.33 1.98 -0.66 3.96 -1 6 C-1.33 5.34 -1.66 4.68 -2 4 C-3.98 4.66 -5.96 5.32 -8 6 C-7.67 4.35 -7.34 2.7 -7 1 C-6.01 1 -5.02 1 -4 1 C-2 0 -2 0 0 0 Z " fill="#312E32" transform="translate(66,54)"/>
<path d="M0 0 C3.875 4.75 3.875 4.75 5 7 C0 6 0 6 -5 5 C-4.360625 4.731875 -3.72125 4.46375 -3.0625 4.1875 C-0.66868314 3.11332248 -0.66868314 3.11332248 0 0 Z " fill="#FEDEBC" transform="translate(53,42)"/>
<path d="M0 0 C1.32 0 2.64 0 4 0 C3.67 1.65 3.34 3.3 3 5 C1.68 4.34 0.36 3.68 -1 3 C-0.67 2.01 -0.34 1.02 0 0 Z " fill="#E17529" transform="translate(71,19)"/>
<path d="M0 0 C1.32 0.33 2.64 0.66 4 1 C4.33 3.31 4.66 5.62 5 8 C2.5 5.6875 2.5 5.6875 0 3 C0 2.01 0 1.02 0 0 Z " fill="#331C0C" transform="translate(54,35)"/>
<path d="M0 0 C0.78375 0.04125 1.5675 0.0825 2.375 0.125 C1.75625 0.5375 1.1375 0.95 0.5 1.375 C-1.69268281 3.18073879 -2.55288417 4.5340534 -3.625 7.125 C-4.25 4.75 -4.25 4.75 -4.625 2.125 C-2.625 0.125 -2.625 0.125 0 0 Z " fill="#E8DBCF" transform="translate(72.625,16.875)"/>
<path d="M0 0 C0.66 0.33 1.32 0.66 2 1 C2 1.66 2 2.32 2 3 C2.66 3.33 3.32 3.66 4 4 C3.67 4.66 3.34 5.32 3 6 C2.01 6 1.02 6 0 6 C-1.125 2.25 -1.125 2.25 0 0 Z " fill="#201C1D" transform="translate(66,73)"/>
<path d="M0 0 C1.21236328 0.01353516 1.21236328 0.01353516 2.44921875 0.02734375 C3.37154297 0.04474609 3.37154297 0.04474609 4.3125 0.0625 C4.3125 0.3925 4.3125 0.7225 4.3125 1.0625 C1.23632812 1.35546875 1.23632812 1.35546875 -1.83984375 1.6484375 C-2.44957031 1.78507812 -3.05929688 1.92171875 -3.6875 2.0625 C-4.0175 2.7225 -4.3475 3.3825 -4.6875 4.0625 C-4.6875 3.4025 -4.6875 2.7425 -4.6875 2.0625 C-5.6775 1.7325 -6.6675 1.4025 -7.6875 1.0625 C-4.80538698 0.10179566 -2.98899956 -0.04331883 0 0 Z " fill="#CE7233" transform="translate(43.6875,33.9375)"/>
</svg>
