<?xml version="1.0" encoding="UTF-8"?>
<svg version="1.1" xmlns="http://www.w3.org/2000/svg" width="400" height="400">
<path d="M0 0 C132 0 264 0 400 0 C400 132 400 264 400 400 C268 400 136 400 0 400 C0 268 0 136 0 0 Z " fill="#3A383B" transform="translate(0,0)"/>
<path d="M0 0 C2.23470405 -0.78309467 2.23470405 -0.78309467 4 -2 C4.66 -1.34 5.32 -0.68 6 0 C6.99 -0.66 7.98 -1.32 9 -2 C11.68802325 -2.19143407 14.27170987 -2.26518933 16.95976257 -2.24723816 C17.77999792 -2.24965257 18.60023327 -2.25206699 19.44532424 -2.25455457 C22.2041081 -2.26020675 24.96266195 -2.25151656 27.72143555 -2.24291992 C29.69589297 -2.24399254 31.67035009 -2.24593091 33.64480591 -2.24867249 C39.01952901 -2.25353139 44.39416941 -2.24584883 49.76888251 -2.23571944 C55.40018607 -2.22693985 61.03148702 -2.22869648 66.66279602 -2.2290802 C76.13466778 -2.22814247 85.6065076 -2.21944973 95.07836914 -2.20581055 C105.99863739 -2.19014281 116.91887049 -2.18481039 127.83914918 -2.1855461 C139.4866212 -2.18622463 151.13407983 -2.17925951 162.78154778 -2.1700995 C166.1227799 -2.1679776 169.46400982 -2.16725956 172.80524254 -2.16686058 C178.08539592 -2.16584724 183.36552041 -2.15967072 188.64566422 -2.14969444 C190.57240051 -2.14680133 192.49914014 -2.14553751 194.42587852 -2.14612198 C204.57166741 -2.14803301 214.61461512 -1.95502838 224.72903156 -1.11598682 C227.73824956 -1.00928153 230.09148852 -1.3100491 233 -2 C235.13028006 -2.0793925 237.26279622 -2.10775926 239.39453125 -2.09765625 C241.19760742 -2.09282227 241.19760742 -2.09282227 243.03710938 -2.08789062 C244.28298828 -2.07951172 245.52886719 -2.07113281 246.8125 -2.0625 C248.07771484 -2.05798828 249.34292969 -2.05347656 250.64648438 -2.04882812 C253.7643711 -2.03706251 256.88216133 -2.02062272 260 -2 C260.98723445 0.96170336 261.13609393 2.92160268 261.15821838 6.01243591 C261.16800815 7.05090133 261.17779791 8.08936674 261.18788433 9.1593008 C261.19363885 10.30096738 261.19939337 11.44263395 261.20532227 12.61889648 C261.22015892 14.42820821 261.22015892 14.42820821 261.2352953 16.27407169 C261.26156067 19.60598178 261.28341107 22.93786658 261.30328512 26.26981735 C261.32539784 29.81104747 261.3529788 33.35223555 261.37979126 36.89343262 C261.4362934 44.50333838 261.48535273 52.11328088 261.5328331 59.72324753 C261.56218133 64.41895137 261.59326974 69.11464271 261.62466431 73.81033325 C261.75613558 93.54826923 261.87331853 113.28626091 261.97868347 133.02435303 C261.99862532 136.7436139 262.01908254 140.46287157 262.03967285 144.18212891 C262.10163885 155.52603223 262.15265324 166.86984546 262.17623901 178.21389771 C262.18279986 181.34256956 262.19363227 184.47117879 262.20828247 187.599823 C262.22755651 191.82570433 262.23030577 196.05141846 262.23046875 200.27734375 C262.23760895 201.46154907 262.24474915 202.64575439 262.25210571 203.86584473 C262.21772515 216.19487501 259.88277265 225.22501608 251.5234375 234.66796875 C245.79520001 239.86818435 237.53094684 243.11496502 229.81601429 243.13422108 C228.98455224 243.13867892 228.15309019 243.14313676 227.29643232 243.14772969 C226.38817707 243.14754533 225.47992181 243.14736097 224.54414368 243.14717102 C223.57519061 243.15084771 222.60623754 243.1545244 221.60792226 243.1583125 C218.35229765 243.16934942 215.09670497 243.1731932 211.84106445 243.17700195 C209.51027831 243.18326657 207.17949316 243.18991337 204.84870911 243.19691467 C198.50970433 243.21432378 192.1707071 243.22487611 185.83168435 243.2331202 C181.8716616 243.23827035 177.9116412 243.24434606 173.9516201 243.25063133 C162.98233107 243.26749973 152.01304411 243.28213468 141.04374409 243.28938007 C138.19851493 243.29128988 135.35328577 243.29321023 132.50805664 243.29516602 C131.80091312 243.29564976 131.09376961 243.2961335 130.3651975 243.2966319 C118.91279696 243.30493025 107.46050094 243.33026498 96.00814603 243.36274669 C84.24341473 243.39584168 72.47873652 243.41383101 60.71395844 243.41702431 C54.11121555 243.4193756 47.5086379 243.42834664 40.9059391 243.45348549 C34.69332516 243.47675704 28.48098538 243.4810029 22.26833916 243.47072411 C19.99033827 243.47022843 17.71232393 243.47655822 15.43436432 243.49028015 C12.31950647 243.50799094 9.20563344 243.50089626 6.09077454 243.48774719 C5.19367289 243.49871644 4.29657125 243.50968568 3.37228471 243.52098733 C-7.41123478 243.41141701 -15.67962006 238.17259161 -23.25 230.8125 C-27.56645424 223.8753414 -30.12804886 215.66879369 -30.12046814 207.51174927 C-30.12178427 206.39328236 -30.1231004 205.27481544 -30.12445641 204.1224556 C-30.12068804 202.89755795 -30.11691967 201.67266029 -30.11303711 200.41064453 C-30.11284388 199.11511028 -30.11265064 197.81957603 -30.11245155 196.48478317 C-30.11151403 192.91098578 -30.1039589 189.3372296 -30.09498715 185.76344442 C-30.08806575 182.72807495 -30.08469162 179.69270516 -30.08117217 176.65733016 C-30.04058443 143.13114827 -29.8442976 109.60555986 -29.61116064 76.08024526 C-29.56608514 69.53649117 -29.52658014 62.99271055 -29.48800808 56.44891536 C-29.44986977 50.02036514 -29.40798453 43.59184652 -29.36312145 37.16333973 C-29.33675467 33.37598107 -29.31188696 29.58862798 -29.29092598 25.8012352 C-29.26785055 21.6563394 -29.23699325 17.51153823 -29.20532227 13.36669922 C-29.1995668 12.13421448 -29.19381134 10.90172974 -29.18788147 9.63189697 C-29.17809265 8.51578033 -29.16830383 7.3996637 -29.15821838 6.24972534 C-29.15176583 5.27798307 -29.14531328 4.30624081 -29.1386652 3.3050518 C-29 1 -29 1 -28 -1 C-25.4500259 -1.31837132 -22.99807001 -1.51476918 -20.4375 -1.625 C-19.74591797 -1.66367188 -19.05433594 -1.70234375 -18.34179688 -1.7421875 C-4.88862078 -2.44431039 -4.88862078 -2.44431039 0 0 Z " fill="#312F32" transform="translate(84,103)"/>
<path d="M0 0 C0 0.66 0 1.32 0 2 C0.639375 2.309375 1.27875 2.61875 1.9375 2.9375 C4 4 4 4 5 5 C5.12161752 7.4984768 5.17859488 9.96981905 5.19287109 12.46972656 C5.20513733 13.64295723 5.20513733 13.64295723 5.21765137 14.83988953 C5.24255563 17.44012679 5.25903564 20.04030921 5.2734375 22.640625 C5.27876118 23.52710472 5.28408485 24.41358444 5.28956985 25.32692719 C5.31632551 30.02051429 5.33569113 34.71407459 5.35009766 39.40771484 C5.36673596 44.25808574 5.41149963 49.10777589 5.4624691 53.95788956 C5.4961204 57.6845376 5.50767287 61.41102385 5.51332474 65.13780975 C5.52004498 66.92560772 5.53528717 68.71339476 5.55921555 70.50104523 C5.59082083 73.00549222 5.59091129 75.50810141 5.58349609 78.01269531 C5.59990143 78.75055771 5.61630676 79.4884201 5.63320923 80.24864197 C5.58531274 84.20413227 5.13342745 85.83751093 2.58853149 88.93670654 C-1.44406084 92.15104695 -3.81331707 92.52745928 -9 92 C-11.63016161 89.8272578 -13.47336894 88.05326212 -15 85 C-15.11786691 83.51987176 -15.17692938 82.03483534 -15.20532227 80.55029297 C-15.22526749 79.62948944 -15.24521271 78.70868591 -15.26576233 77.75997925 C-15.29083107 76.26617233 -15.29083107 76.26617233 -15.31640625 74.7421875 C-15.33718735 73.72399933 -15.35796844 72.70581116 -15.37937927 71.6567688 C-15.44489466 68.39624945 -15.50376902 65.13564794 -15.5625 61.875 C-15.60568332 59.66796017 -15.64929755 57.46092872 -15.69335938 55.25390625 C-15.80057805 49.83602499 -15.90234074 44.41806154 -16 39 C-16.78648926 40.20329956 -16.78648926 40.20329956 -17.58886719 41.4309082 C-19.54236716 44.4155982 -21.50513129 47.39409858 -23.47070312 50.37084961 C-24.31893391 51.65825026 -25.1646681 52.94729956 -26.0078125 54.23803711 C-27.22257935 56.09671634 -28.44630273 57.94921449 -29.671875 59.80078125 C-30.04495789 60.37588943 -30.41804077 60.95099762 -30.8024292 61.54353333 C-32.87296731 64.65064348 -34.77560121 67.07219138 -38 69 C-40.9375 69.5 -40.9375 69.5 -44 69 C-50.78918349 63.77755116 -55.20436876 55.29811993 -59.7265625 48.1640625 C-60.34354004 47.19162598 -60.96051758 46.21918945 -61.59619141 45.21728516 C-62.05944824 44.48558105 -62.52270508 43.75387695 -63 43 C-63.00410889 44.27641357 -63.00821777 45.55282715 -63.01245117 46.86791992 C-63.03425079 51.61132994 -63.08854946 56.35391145 -63.15258789 61.09692383 C-63.17576059 63.14827524 -63.19016189 65.1997455 -63.19555664 67.2512207 C-63.20485143 70.2033895 -63.24585364 73.15369086 -63.29296875 76.10546875 C-63.2890361 77.02023483 -63.28510345 77.93500092 -63.28105164 78.87748718 C-63.38595922 83.47322458 -63.4940565 85.37699018 -66.48168945 89.0559082 C-67.31273193 89.6974585 -68.14377441 90.33900879 -69 91 C-69.33 91.33 -69.66 91.66 -70 92 C-77.11943794 92.71194379 -77.11943794 92.71194379 -80.9375 89.625 C-83.59091355 86.24792821 -84.12498865 84.74584686 -84.11352539 80.55029297 C-84.11341209 79.16908768 -84.11341209 79.16908768 -84.11329651 77.75997925 C-84.10813522 76.76410797 -84.10297394 75.76823669 -84.09765625 74.7421875 C-84.0962413 73.72399933 -84.09482635 72.70581116 -84.09336853 71.6567688 C-84.087759 68.39614965 -84.07520488 65.13559849 -84.0625 61.875 C-84.05748623 59.66796974 -84.05292311 57.46093841 -84.04882812 55.25390625 C-84.03778648 49.83591419 -84.02103905 44.41796195 -84 39 C-86.48289184 41.37893403 -88.56916491 43.6211062 -90.33203125 46.57421875 C-90.9362793 47.56989868 -90.9362793 47.56989868 -91.55273438 48.58569336 C-91.96845703 49.27928955 -92.38417969 49.97288574 -92.8125 50.6875 C-102.70331633 66.85165816 -102.70331633 66.85165816 -107 69 C-110.52105489 69.39122832 -112.38324047 69.39842867 -115.39453125 67.453125 C-118.60297161 64.4322846 -120.63883747 61.20611257 -122.875 57.4375 C-123.68420408 56.10244505 -124.49411656 54.76781926 -125.3046875 53.43359375 C-125.72073242 52.74378418 -126.13677734 52.05397461 -126.56542969 51.34326172 C-129.31298151 46.85534436 -132.16213138 42.43115699 -135 38 C-135.00364563 38.5902446 -135.00729126 39.1804892 -135.01104736 39.78862 C-135.05288825 45.93719728 -135.1222449 52.08502919 -135.20751953 58.2331543 C-135.23572882 60.52702374 -135.25694353 62.82099038 -135.27099609 65.11499023 C-135.29242551 68.41440593 -135.33907783 71.71265302 -135.390625 75.01171875 C-135.39246796 76.54792122 -135.39246796 76.54792122 -135.39434814 78.11515808 C-135.48600509 82.58034453 -135.54387522 85.25510098 -137.91308594 89.12426758 C-141.14466765 92.02883499 -143.53086248 92.23007841 -147.83203125 92.62109375 C-151.32724416 91.61976248 -153.19955994 89.0148698 -155 86 C-155.4862375 83.11822775 -155.68687447 80.83265862 -155.64697266 77.96264648 C-155.65573425 77.17976257 -155.66449585 76.39687866 -155.67352295 75.590271 C-155.69543157 73.016639 -155.68099733 70.4447415 -155.6640625 67.87109375 C-155.66743278 66.07560396 -155.67228717 64.2801164 -155.67855835 62.4846344 C-155.68591777 58.72789719 -155.6752532 54.97175569 -155.65185547 51.21508789 C-155.6233473 46.40392703 -155.63978993 41.59415953 -155.66971779 36.78304958 C-155.68779858 33.07775907 -155.68202959 29.37279816 -155.66907883 25.66749763 C-155.66574802 23.89370622 -155.66982046 22.1198847 -155.68147659 20.34612846 C-155.69420105 17.86593382 -155.67478999 15.3879865 -155.64697266 12.90795898 C-155.65709381 12.17795181 -155.66721497 11.44794464 -155.67764282 10.69581604 C-155.59691045 6.80353517 -155.1034291 5.12926664 -152.64096069 2.051651 C-149.54326312 -0.35481963 -147.95136506 -0.7299801 -144.0625 -0.75 C-143.06347656 -0.78609375 -142.06445312 -0.8221875 -141.03515625 -0.859375 C-133.49301106 1.27611013 -129.49868953 10.69517568 -125.6875 17 C-125.12716064 17.91612061 -124.56682129 18.83224121 -123.98950195 19.77612305 C-122.31870354 22.51287032 -120.6574831 25.25517169 -119 28 C-118.51402344 28.8038916 -118.02804688 29.6077832 -117.52734375 30.43603516 C-115.00396914 34.61559902 -112.49479984 38.8033212 -110 43 C-98.83000812 26.23991051 -98.83000812 26.23991051 -88.7109375 8.83984375 C-83.6452982 0.43180774 -83.6452982 0.43180774 -79.09765625 -0.76171875 C-78.09605469 -0.73722656 -77.09445313 -0.71273437 -76.0625 -0.6875 C-74.56396484 -0.69330078 -74.56396484 -0.69330078 -73.03515625 -0.69921875 C-67.46881059 0.58311828 -64.41723838 4.10858203 -61.4296875 8.72265625 C-60.56698977 10.16265801 -59.71594372 11.60968683 -58.875 13.0625 C-58.41633545 13.83384277 -57.9576709 14.60518555 -57.48510742 15.39990234 C-56.50279443 17.05291396 -55.52497922 18.70860523 -54.55126953 20.36669922 C-52.3744716 24.06184283 -50.15997135 27.73394802 -47.94775391 31.40795898 C-45.62474536 35.26773237 -43.31193311 39.13358566 -41 43 C-38.58534653 39.89406205 -36.5039843 36.66466844 -34.453125 33.30859375 C-33.7725 32.19806641 -33.091875 31.08753906 -32.390625 29.94335938 C-31.67694568 28.77482365 -30.96340455 27.6062035 -30.25 26.4375 C-28.17584107 23.04434177 -26.09811795 19.65349498 -24.00976562 16.26904297 C-22.69209251 14.12574328 -21.38815808 11.97392286 -20.09960938 9.81298828 C-19.50470703 8.83442871 -18.90980469 7.85586914 -18.296875 6.84765625 C-17.77963867 5.98277588 -17.26240234 5.11789551 -16.72949219 4.22680664 C-12.28544913 -1.49511836 -6.69724509 -2.23241503 0 0 Z " fill="#E4E4E5" transform="translate(278,174)"/>
<path d="M0 0 C0.92655854 -0.00155999 1.85311708 -0.00311998 2.80775315 -0.00472724 C5.93158948 -0.00873543 9.05537773 -0.00554827 12.17921448 -0.00241089 C14.41106698 -0.00376502 16.64291926 -0.00554502 18.87477112 -0.00772095 C24.95111216 -0.01229415 31.02743629 -0.01050611 37.10377765 -0.00734186 C43.45119445 -0.00481737 49.79860976 -0.00715608 56.14602661 -0.00872803 C67.49208662 -0.01066641 78.83813801 -0.00755033 90.1841963 -0.00246869 C100.47632207 0.00199819 110.76843657 0.00122422 121.06056213 -0.00338745 C133.00386812 -0.00873645 144.94716725 -0.01073224 156.89047486 -0.00777519 C163.21576811 -0.00621336 169.5410536 -0.00601607 175.86634636 -0.00931168 C181.81291098 -0.01219327 187.75945424 -0.01020934 193.70601654 -0.00441742 C195.89299802 -0.00309132 198.07998128 -0.00348141 200.26696205 -0.00568008 C203.24359171 -0.00839746 206.22015214 -0.00500314 209.19677734 0 C210.50649109 -0.00334608 210.50649109 -0.00334608 211.84266371 -0.00675976 C215.20047756 0.00424797 217.95396141 0.05767728 221.16188049 1.12698364 C224.16188049 5.12698364 224.16188049 5.12698364 224.16188049 17.12698364 C145.62188049 17.12698364 67.08188049 17.12698364 -13.83811951 17.12698364 C-13.83811951 5.12698364 -13.83811951 5.12698364 -12.83811951 3.12698364 C-12.17811951 3.12698364 -11.51811951 3.12698364 -10.83811951 3.12698364 C-10.83811951 2.46698364 -10.83811951 1.80698364 -10.83811951 1.12698364 C-7.48142185 -0.55136519 -3.69130096 -0.00940658 0 0 Z " fill="#03BCF4" transform="translate(94.83811950683594,80.87301635742188)"/>
<path d="M0 0 C78.54 0 157.08 0 238 0 C238 0.66 238 1.32 238 2 C247.24 2 256.48 2 266 2 C266 2.66 266 3.32 266 4 C261.4793335 4.02468857 256.9587061 4.04285449 252.43798828 4.05493164 C250.89956987 4.05996552 249.36115625 4.06679308 247.82275391 4.07543945 C245.61359474 4.08754639 243.40449874 4.09323769 241.1953125 4.09765625 C240.50567413 4.10281754 239.81603577 4.10797882 239.10549927 4.11329651 C234.22774341 4.11387171 234.22774341 4.11387171 232 3 C231.67 3.66 231.34 4.32 231 5 C229.78793884 4.9297612 228.57587769 4.8595224 227.3270874 4.78715515 C206.67004514 3.70868318 186.00074409 3.83534621 165.32209873 3.83274293 C162.11580042 3.8320257 158.90950621 3.82987923 155.70320892 3.82724571 C144.50086704 3.81805425 133.29853693 3.81390447 122.09619141 3.81469727 C111.67112957 3.81530187 101.24611883 3.8046598 90.82106996 3.7889536 C81.83460823 3.77589894 72.84816333 3.77051224 63.86169219 3.77115268 C58.50862928 3.77140754 53.1556123 3.76856032 47.8025589 3.75797462 C42.78890055 3.74832448 37.77533252 3.74819308 32.76167107 3.75549126 C30.9217891 3.75653975 29.08190158 3.75415859 27.24202919 3.7481308 C24.7354031 3.7404478 22.22909213 3.74503037 19.72247314 3.75276184 C18.99176047 3.74761828 18.26104779 3.74247471 17.5081923 3.73717529 C13.84112239 3.7622548 11.11717606 3.97738327 8 6 C7.505 5.01 7.505 5.01 7 4 C6.236875 4.37125 5.47375 4.7425 4.6875 5.125 C3.800625 5.41375 2.91375 5.7025 2 6 C1.01 5.34 0.02 4.68 -1 4 C-3.90930342 3.72329506 -3.90930342 3.72329506 -7.19921875 3.8046875 C-9.01196289 3.81435547 -9.01196289 3.81435547 -10.86132812 3.82421875 C-12.12396484 3.84097656 -13.38660156 3.85773438 -14.6875 3.875 C-16.59885742 3.88853516 -16.59885742 3.88853516 -18.54882812 3.90234375 C-21.69940627 3.92594359 -24.84960983 3.95886806 -28 4 C-28 3.34 -28 2.68 -28 2 C-18.76 2 -9.52 2 0 2 C0 1.34 0 0.68 0 0 Z " fill="#234655" transform="translate(81,98)"/>
<path d="M0 0 C0.33 0 0.66 0 1 0 C1 3.63 1 7.26 1 11 C2.65 10.67 4.3 10.34 6 10 C7.4006582 9.9212798 8.80438267 9.88568907 10.20723438 9.89256954 C11.01837061 9.89406189 11.82950683 9.89555424 12.66522294 9.89709181 C13.98575379 9.90729749 13.98575379 9.90729749 15.33296204 9.91770935 C16.74819579 9.92255304 16.74819579 9.92255304 18.19202012 9.92749459 C21.35502406 9.93956319 24.51794094 9.95893749 27.6809082 9.97827148 C29.94762483 9.98841495 32.2143435 9.99810855 34.48106384 10.00738525 C40.63762444 10.03385938 46.79413733 10.06664038 52.95066094 10.10053515 C59.38352818 10.13488492 65.81642097 10.16346015 72.24931335 10.19264221 C83.04749348 10.24240718 93.84564977 10.29574066 104.64379883 10.35180664 C115.7652073 10.40954127 126.8866231 10.46512654 138.00805664 10.51782227 C138.69375201 10.52107198 139.37944737 10.5243217 140.08592138 10.5276699 C143.52590444 10.54395977 146.96588768 10.56020739 150.40587103 10.57643402 C178.93728086 10.71107315 207.46865033 10.85319245 236 11 C235.67 7.7 235.34 4.4 235 1 C235.99 1.495 235.99 1.495 237 2 C237 5.96 237 9.92 237 14 C158.46 14 79.92 14 -1 14 C-1 2 -1 2 0 0 Z " fill="#0997C1" transform="translate(82,84)"/>
<path d="M0 0 C1.49091248 -0.0083016 1.49091248 -0.0083016 3.01194441 -0.0167709 C6.31613559 -0.03029832 9.61956103 -0.01545118 12.92373657 -0.00050354 C15.3029309 -0.00428943 17.68212302 -0.00979169 20.06130981 -0.01687622 C26.50302376 -0.03080811 32.94446995 -0.01967875 39.38616896 -0.00316501 C45.44553242 0.01098809 51.5048925 0.00507217 57.56426616 0.00170528 C69.56466779 -0.0041633 81.56496422 0.00996248 93.56533813 0.03465271 C105.20730525 0.05860276 116.84913205 0.06564323 128.49111938 0.05516052 C141.18126468 0.04375445 153.8713452 0.04181489 166.5614897 0.05625862 C167.91397515 0.05778443 169.26646061 0.05930478 170.61894608 0.06081963 C171.28434803 0.06157744 171.94974999 0.06233525 172.63531565 0.06311603 C177.32436507 0.06785876 182.01338555 0.06600775 186.70243454 0.06175423 C193.00785674 0.05699199 199.31308412 0.06705496 205.61846924 0.08870888 C207.93564827 0.09428575 210.252846 0.09473384 212.5700264 0.08975601 C215.72561337 0.0838257 218.88060004 0.09626502 222.03613281 0.11352539 C223.4208382 0.10451032 223.4208382 0.10451032 224.83351743 0.09531313 C231.05069166 0.15742711 231.05069166 0.15742711 234.2371769 2.02543545 C234.69915663 2.51243955 235.16113636 2.99944365 235.63711548 3.50120544 C234.39305467 3.49844007 233.14899385 3.49567469 231.86723423 3.49282551 C202.32030592 3.42781932 172.77339388 3.37836756 143.22641176 3.34800946 C139.58784087 3.34425744 135.94927013 3.34037446 132.31069946 3.33641052 C131.58634087 3.33562359 130.86198227 3.33483666 130.11567342 3.33402588 C118.39468428 3.32098025 106.6737394 3.29733106 94.9527765 3.26974706 C82.92149377 3.24166938 70.89023418 3.22502419 58.85892004 3.21893996 C52.10300332 3.21519688 45.34717878 3.20621159 38.59129524 3.18401527 C32.23103797 3.16363718 25.8709222 3.15737441 19.51063538 3.1618824 C17.17781238 3.1610578 14.8449846 3.15510017 12.51218987 3.14358902 C9.32282891 3.12862451 6.13399957 3.1322666 2.94462585 3.14044189 C2.02534099 3.13170337 1.10605613 3.12296485 0.15891415 3.11396152 C-9.43977091 3.18029119 -17.353042 5.83330646 -24.36288452 12.50120544 C-26.31713133 14.85553428 -28.14710982 17.24827644 -29.91757202 19.74339294 C-30.39452515 20.32347107 -30.87147827 20.90354919 -31.36288452 21.50120544 C-32.02288452 21.50120544 -32.68288452 21.50120544 -33.36288452 21.50120544 C-31.24140866 14.71248269 -26.34536119 8.30823605 -20.36288452 4.50120544 C-13.48881038 1.12197225 -7.6133022 -0.08037989 0 0 Z " fill="#474548" transform="translate(89.36288452148438,52.49879455566406)"/>
<path d="M0 0 C28.86739107 -0.02279927 57.73478107 -0.04050279 86.60217937 -0.05106533 C90.00814238 -0.05231608 93.41410537 -0.0536104 96.82006836 -0.05493164 C97.83719229 -0.05532511 97.83719229 -0.05532511 98.87486418 -0.05572652 C109.86270197 -0.06008104 120.85053454 -0.0679674 131.83836923 -0.0771528 C143.1079969 -0.08649537 154.37762196 -0.09198201 165.64725369 -0.09408849 C171.97928612 -0.09539497 178.3113067 -0.09847685 184.64333534 -0.10573006 C190.59807775 -0.1124961 196.55280339 -0.11461576 202.50754929 -0.11310768 C204.69775547 -0.11338374 206.88796219 -0.11538541 209.07816505 -0.11920547 C212.05927713 -0.12415179 215.04032516 -0.12299476 218.0214386 -0.12025452 C219.33319871 -0.12462378 219.33319871 -0.12462378 220.67145902 -0.12908131 C224.03292531 -0.12068064 226.78850582 -0.07049806 230 1 C232.62979194 5.56753338 232 8.252278 232 14 C156.1 14 80.2 14 2 14 C2 13.67 2 13.34 2 13 C3.17366827 12.99365209 3.17366827 12.99365209 4.37104702 12.98717594 C23.38180119 12.88401395 42.39251698 12.77539819 61.40320492 12.66066074 C70.59650825 12.60530778 79.78981546 12.55182245 88.9831543 12.50268555 C96.99309473 12.45986903 105.00300635 12.41359755 113.01290232 12.36312145 C117.25675562 12.33650003 121.50060312 12.31164653 125.74448967 12.29092598 C129.73431871 12.27139137 133.72409279 12.24725733 137.71387291 12.21950912 C139.18248246 12.2101218 140.65110409 12.20245261 142.1197319 12.19658089 C144.1162578 12.18834826 146.11275315 12.17348264 148.10923767 12.15821838 C149.22921615 12.15176583 150.34919462 12.14531328 151.50311184 12.1386652 C153.94062511 12.28164488 153.94062511 12.28164488 155 11 C157.13353174 10.89996711 159.27037542 10.86918952 161.40625 10.8671875 C162.70691406 10.86589844 164.00757813 10.86460938 165.34765625 10.86328125 C166.36883545 10.86642334 166.36883545 10.86642334 167.41064453 10.86962891 C169.49128515 10.8749776 171.57170989 10.8696832 173.65234375 10.86328125 C175.60333984 10.86521484 175.60333984 10.86521484 177.59375 10.8671875 C178.79708984 10.86831543 180.00042969 10.86944336 181.24023438 10.87060547 C184 11 184 11 185 12 C186.44184293 12.12221525 187.88943144 12.17772758 189.33618164 12.20532227 C190.2570607 12.22526749 191.17793976 12.24521271 192.12672424 12.26576233 C193.62827309 12.29083107 193.62827309 12.29083107 195.16015625 12.31640625 C196.17975937 12.33718735 197.19936249 12.35796844 198.24986267 12.37937927 C201.52067048 12.44498852 204.79156137 12.50381234 208.0625 12.5625 C210.27409728 12.60567442 212.48568603 12.64928834 214.69726562 12.69335938 C220.13142151 12.8006814 225.56566082 12.90242623 231 13 C230.690625 12.0925 230.38125 11.185 230.0625 10.25 C229.27169247 7.83105932 228.59553894 5.46799921 228 3 C221.48700969 2.25119194 215.07534981 1.84960794 208.52133179 1.84178162 C207.17319379 1.83437465 207.17319379 1.83437465 205.79782069 1.82681805 C202.8162246 1.81158193 199.8346498 1.8031205 196.85302734 1.79467773 C194.70379452 1.78508826 192.55456354 1.77507757 190.40533447 1.76467896 C184.59207431 1.73773963 178.77880612 1.71667093 172.96551847 1.69667697 C166.88232189 1.67474943 160.79914974 1.64739396 154.7159729 1.62062073 C143.20612995 1.57078511 131.69627338 1.52581254 120.18640387 1.48259836 C107.07878729 1.43314777 93.97119523 1.37825874 80.8636024 1.32291877 C53.90909117 1.20923897 26.95455639 1.10236964 0 1 C0 0.67 0 0.34 0 0 Z " fill="#03B4EA" transform="translate(86,81)"/>
<path d="M0 0 C80.52 0 161.04 0 244 0 C244 0.66 244 1.32 244 2 C239.4793335 2.02468857 234.9587061 2.04285449 230.43798828 2.05493164 C228.89956987 2.05996552 227.36115625 2.06679308 225.82275391 2.07543945 C223.61359474 2.08754639 221.40449874 2.09323769 219.1953125 2.09765625 C218.50567413 2.10281754 217.81603577 2.10797882 217.10549927 2.11329651 C212.22774341 2.11387171 212.22774341 2.11387171 210 1 C209.67 1.66 209.34 2.32 209 3 C208.07161568 2.93019456 207.14323135 2.86038912 206.18671417 2.78846836 C195.27072227 2.02978921 184.40641033 1.83019443 173.46679688 1.79467773 C171.56298116 1.78507276 169.65916747 1.77506127 167.75535583 1.76467896 C162.63871096 1.73790707 157.52205711 1.7167495 152.40538216 1.69667697 C147.0389154 1.6746441 141.67247537 1.64734095 136.30603027 1.62062073 C126.16698639 1.57092567 116.02792748 1.52590191 105.8888545 1.48259836 C94.33608581 1.4330264 82.78334396 1.378183 71.23060131 1.32291877 C47.48709265 1.2094552 23.74355817 1.10254013 0 1 C0 0.67 0 0.34 0 0 Z " fill="#404A50" transform="translate(103,100)"/>
<path d="M0 0 C28.86739107 -0.02279927 57.73478107 -0.04050279 86.60217937 -0.05106533 C90.00814238 -0.05231608 93.41410537 -0.0536104 96.82006836 -0.05493164 C97.83719229 -0.05532511 97.83719229 -0.05532511 98.87486418 -0.05572652 C109.86270197 -0.06008104 120.85053454 -0.0679674 131.83836923 -0.0771528 C143.1079969 -0.08649537 154.37762196 -0.09198201 165.64725369 -0.09408849 C171.97928612 -0.09539497 178.3113067 -0.09847685 184.64333534 -0.10573006 C190.59807775 -0.1124961 196.55280339 -0.11461576 202.50754929 -0.11310768 C204.69775547 -0.11338374 206.88796219 -0.11538541 209.07816505 -0.11920547 C212.05927713 -0.12415179 215.04032516 -0.12299476 218.0214386 -0.12025452 C219.33319871 -0.12462378 219.33319871 -0.12462378 220.67145902 -0.12908131 C224.03292531 -0.12068064 226.78850582 -0.07049806 230 1 C230.33 1.99 230.66 2.98 231 4 C230.31085164 3.85932413 229.62170328 3.71864826 228.91167164 3.57370949 C218.11824008 1.62591298 207.44754758 1.6920563 196.51245117 1.68115234 C194.36277393 1.67183962 192.21310027 1.66166898 190.06343079 1.65071106 C184.26274027 1.62354849 178.46207385 1.60830262 172.66133666 1.59528303 C166.58615229 1.57959203 160.51101669 1.55282099 154.43586731 1.5272522 C142.94737889 1.48056974 131.45888119 1.44377479 119.97034675 1.41057932 C106.88441149 1.37228331 93.79852535 1.32289284 80.71263158 1.27259517 C53.80845752 1.16943205 26.90425186 1.08012108 0 1 C0 0.67 0 0.34 0 0 Z " fill="#4DA7C1" transform="translate(86,81)"/>
<path d="M0 0 C72.6 0 145.2 0 220 0 C220 0.33 220 0.66 220 1 C218.90355384 1.00331015 217.80710768 1.00662029 216.67743587 1.01003075 C190.00367112 1.0910097 163.32996396 1.18332063 136.65627956 1.28752708 C123.75711186 1.33765785 110.85795053 1.38410078 97.95874023 1.421875 C86.7163495 1.45480671 75.47400813 1.49464456 64.23167187 1.54279006 C58.2784627 1.56804321 52.32528623 1.58982809 46.37203789 1.60334396 C40.76852147 1.61617492 35.16511727 1.63824075 29.56166267 1.66738319 C27.50537962 1.67645083 25.4490785 1.6821473 23.39277649 1.68421364 C20.58374013 1.68754187 17.7750208 1.70303476 14.96604919 1.7215271 C13.74763963 1.718625 13.74763963 1.718625 12.50461572 1.71566427 C7.64004268 1.76348781 3.61933871 2.4559439 -1 4 C-0.67 2.68 -0.34 1.36 0 0 Z " fill="#35C3E8" transform="translate(84,82)"/>
<path d="M0 0 C0.99 0.66 1.98 1.32 3 2 C2.41992188 2.35191406 1.83984375 2.70382813 1.2421875 3.06640625 C-5.28860538 7.19395357 -9.73218815 11.59828223 -14 18 C-14.66 18 -15.32 18 -16 18 C-13.84110307 11.09152981 -8.95871195 5.02615672 -3 1 C-2.01 0.67 -1.02 0.34 0 0 Z " fill="#434144" transform="translate(72,56)"/>
<path d="M0 0 C0.66 0.33 1.32 0.66 2 1 C0.43358249 5.30764815 -1.68336156 9.06171464 -4 13 C-6.72426311 10.64722731 -7.8141763 8.37503669 -9 5 C-7.329375 4.87625 -7.329375 4.87625 -5.625 4.75 C-1.94246056 4.42126213 -1.94246056 4.42126213 -0.5625 1.9375 C-0.376875 1.298125 -0.19125 0.65875 0 0 Z " fill="#373737" transform="translate(242,205)"/>
<path d="M0 0 C14.52 0 29.04 0 44 0 C44 0.33 44 0.66 44 1 C42.8855249 1.01981934 41.7710498 1.03963867 40.62280273 1.06005859 C36.46470592 1.13646948 32.30694294 1.22513069 28.14916992 1.31738281 C26.35398986 1.35552655 24.55873717 1.39040422 22.76342773 1.421875 C20.17405341 1.46784447 17.58517281 1.52578419 14.99609375 1.5859375 C14.20101913 1.59748871 13.40594452 1.60903992 12.58677673 1.62094116 C7.72026576 1.74812934 3.62517564 2.46634665 -1 4 C-0.67 2.68 -0.34 1.36 0 0 Z " fill="#35C4E4" transform="translate(84,82)"/>
<path d="M0 0 C1.32 1.32 2.64 2.64 4 4 C3.34 4.66 2.68 5.32 2 6 C1.75443629 8.72000357 1.62643514 11.34574257 1.5859375 14.0703125 C1.56657135 14.86654022 1.5472052 15.66276794 1.5272522 16.48312378 C1.46739526 19.03030634 1.42104721 21.57753395 1.375 24.125 C1.33682579 25.8502803 1.29777439 27.57554143 1.2578125 29.30078125 C1.16168891 33.53369876 1.07768092 37.76670549 1 42 C0.67 42 0.34 42 0 42 C0 28.14 0 14.28 0 0 Z " fill="#3A3A3B" transform="translate(214,216)"/>
<path d="M0 0 C4.875 1.875 4.875 1.875 6 3 C6.66 3 7.32 3 8 3 C8.33 2.01 8.66 1.02 9 0 C9.66 0 10.32 0 11 0 C10.49701212 4.40114397 8.91227269 6.71195019 6 10 C4.99723227 8.52270825 3.99785546 7.04311423 3 5.5625 C2.443125 4.73878906 1.88625 3.91507813 1.3125 3.06640625 C0 1 0 1 0 0 Z " fill="#3B3B3B" transform="translate(162,208)"/>
<path d="M0 0 C0.99 0 1.98 0 3 0 C4 2 4 2 4 10 C-5.9 10 -15.8 10 -26 10 C-26 9.67 -26 9.34 -26 9 C-16.43 9 -6.86 9 3 9 C2.34 7.02 1.68 5.04 1 3 C0.67 2.01 0.34 1.02 0 0 Z " fill="#0BB5E5" transform="translate(314,85)"/>
<path d="M0 0 C2.33944736 0.28730055 4.6739143 0.61936779 7 1 C6.25 7.75 6.25 7.75 4 10 C2.35 7.03 0.7 4.06 -1 1 C-0.67 0.67 -0.34 0.34 0 0 Z " fill="#3C3A3D" transform="translate(144,176)"/>
<path d="M0 0 C0.99 0.33 1.98 0.66 3 1 C3 4.96 3 8.92 3 13 C2.01 13.495 2.01 13.495 1 14 C0.67 9.38 0.34 4.76 0 0 Z " fill="#133A4A" transform="translate(318,84)"/>
<path d="M0 0 C0.33 0 0.66 0 1 0 C1 2.97 1 5.94 1 9 C-0.32 9 -1.64 9 -3 9 C-3 7.02 -3 5.04 -3 3 C-2.01 2.67 -1.02 2.34 0 2 C0 1.34 0 0.68 0 0 Z " fill="#292929" transform="translate(261,215)"/>
<path d="M0 0 C3.96 0 7.92 0 12 0 C12 0.33 12 0.66 12 1 C11.31292969 1.13277344 10.62585938 1.26554687 9.91796875 1.40234375 C8.56638672 1.66724609 8.56638672 1.66724609 7.1875 1.9375 C5.84751953 2.19853516 5.84751953 2.19853516 4.48046875 2.46484375 C1.88602829 2.97741153 1.88602829 2.97741153 -1 4 C-0.67 2.68 -0.34 1.36 0 0 Z " fill="#39B3D7" transform="translate(84,82)"/>
<path d="M0 0 C0.99 0.33 1.98 0.66 3 1 C2.34 2.32 1.68 3.64 1 5 C0.34 3.68 -0.32 2.36 -1 1 C-0.67 0.67 -0.34 0.34 0 0 Z M-2 2 C-1.67 2.99 -1.34 3.98 -1 5 C-1.66 5 -2.32 5 -3 5 C-3 5.66 -3 6.32 -3 7 C-3.66 6.67 -4.32 6.34 -5 6 C-4.67 5.01 -4.34 4.02 -4 3 C-3.34 2.67 -2.68 2.34 -2 2 Z " fill="#ECEBEC" transform="translate(260,185)"/>
<path d="M0 0 C1.32 0.66 2.64 1.32 4 2 C2.515 4.475 2.515 4.475 1 7 C0.34 6.34 -0.32 5.68 -1 5 C-0.625 2.375 -0.625 2.375 0 0 Z " fill="#414042" transform="translate(258,177)"/>
<path d="M0 0 C3.96 0 7.92 0 12 0 C12.33 0.99 12.66 1.98 13 3 C8.71 2.34 4.42 1.68 0 1 C0 0.67 0 0.34 0 0 Z " fill="#3FB2D4" transform="translate(304,82)"/>
<path d="M0 0 C1 4 1 4 0 6 C-3.0625 6.625 -3.0625 6.625 -6 7 C-4.02 4.69 -2.04 2.38 0 0 Z " fill="#504F51" transform="translate(246,236)"/>
</svg>
