<?xml version="1.0" encoding="UTF-8"?>
<svg version="1.1" xmlns="http://www.w3.org/2000/svg" width="100" height="100">
<path d="M0 0 C33 0 66 0 100 0 C100 33 100 66 100 100 C67 100 34 100 0 100 C0 67 0 34 0 0 Z " fill="#FDFBFE" transform="translate(0,0)"/>
<path d="M0 0 C8.19812959 4.79677795 14.69671633 12.05890045 18 21 C18.83384163 24.31167782 19.47460617 27.62641854 20 31 C17.03 31 14.06 31 11 31 C10.85304687 30.38253906 10.70609375 29.76507813 10.5546875 29.12890625 C8.53708662 21.51072361 5.51500815 14.13506783 -1.1875 9.5 C-7.40752402 6.18265386 -14.53378413 5.83715441 -21.35546875 7.61328125 C-29.34343936 11.12057202 -33.04849642 18.39171706 -36.23828125 26.1171875 C-37.3455074 30.30761261 -37.56872728 34.68727277 -38 39 C-19.19 39 -0.38 39 19 39 C21.57211962 51.8605981 20.34381883 64.53954962 13.4921875 75.87109375 C7.89048532 83.86305105 1.43061073 88.34916771 -8 91 C-16.4517022 92.41278454 -23.74732015 90.03223623 -30.640625 85.1171875 C-38.96869061 78.16050994 -44.15265871 69.7145795 -46 59 C-46.125 56 -46.125 56 -46 54 C-43.36 54 -40.72 54 -38 54 C-37.67128906 55.25103516 -37.67128906 55.25103516 -37.3359375 56.52734375 C-34.87173007 65.27227499 -32.19251836 72.59357883 -25 78.4375 C-18.66903704 81.73487654 -13.94377085 82.73021353 -7 81 C0.38966152 78.28070211 4.46256126 73.93838468 8 67 C11.01961343 60.34500884 11.31973519 54.48291287 12 47 C-6.81 47 -25.62 47 -45 47 C-47.59585598 36.61657609 -46.65704502 24.75295615 -41.5234375 15.2734375 C-31.54598513 0.19336109 -17.35758798 -7.35209937 0 0 Z " fill="#8E3EE8" transform="translate(63,6)"/>
<path d="M0 0 C1.1858519 0.00212242 1.1858519 0.00212242 2.3956604 0.00428772 C4.90183416 0.00985121 7.40791608 0.02239681 9.9140625 0.03515625 C11.62109245 0.04017597 13.32812382 0.04473805 15.03515625 0.04882812 C19.20315998 0.05980866 23.37109571 0.07704786 27.5390625 0.09765625 C27.81909796 10.91252985 26.33868719 19.75851122 19.296875 28.375 C14.47030753 33.10503612 8.55930605 35.88405062 1.80078125 36.296875 C-3.9429236 35.79095281 -9.80266954 32.67315574 -14.046875 28.83203125 C-19.48658847 22.16011749 -22.17738795 14.60414277 -22.4609375 6.09765625 C-24.4409375 5.43765625 -26.4209375 4.77765625 -28.4609375 4.09765625 C-27.29296875 2.60546875 -27.29296875 2.60546875 -25.4609375 1.09765625 C-22.97265625 0.83984375 -22.97265625 0.83984375 -20.1484375 0.97265625 C-17.23830085 1.09441929 -14.67826574 1.13809639 -11.80932617 0.60424805 C-7.85548853 0.00605533 -3.98668861 -0.02719994 0 0 Z " fill="#FCF7FC" transform="translate(47.4609375,52.90234375)"/>
<path d="M0 0 C18.48 0 36.96 0 56 0 C58.57211962 12.8605981 57.34381883 25.53954962 50.4921875 36.87109375 C44.89048532 44.86305105 38.43061073 49.34916771 29 52 C20.5482978 53.41278454 13.25267985 51.03223623 6.359375 46.1171875 C-1.96869061 39.16050994 -7.15265871 30.7145795 -9 20 C-9.125 17 -9.125 17 -9 15 C-6.36 15 -3.72 15 -1 15 C-0.67128906 16.25103516 -0.67128906 16.25103516 -0.3359375 17.52734375 C2.12826993 26.27227499 4.80748164 33.59357883 12 39.4375 C18.33096296 42.73487654 23.05622915 43.73021353 30 42 C38.27025055 38.95665698 42.33825377 33.67839197 45.99609375 25.875 C48.45765755 19.46786743 48.69523562 12.79939831 49 6 C47.98631348 6.00785522 47.98631348 6.00785522 46.95214844 6.01586914 C43.88477511 6.03668007 40.81741667 6.04967329 37.75 6.0625 C36.15478516 6.07506836 36.15478516 6.07506836 34.52734375 6.08789062 C33.50253906 6.09111328 32.47773437 6.09433594 31.421875 6.09765625 C30.00793457 6.10551147 30.00793457 6.10551147 28.56542969 6.11352539 C26.21876563 6.00968082 24.24355522 5.66706529 22 5 C22.33 4.01 22.66 3.02 23 2 C15.41 1.67 7.82 1.34 0 1 C0 0.67 0 0.34 0 0 Z " fill="#B32BBC" transform="translate(26,45)"/>
<path d="M0 0 C0.33 0 0.66 0 1 0 C1 2.97 1 5.94 1 9 C2.65 7.68 4.3 6.36 6 5 C6.22786458 7.05078125 6.45572917 9.1015625 6.68359375 11.15234375 C6.81886614 13.01140229 6.81886614 13.01140229 8 14 C9.68709347 14.12299166 11.37920903 14.17785258 13.07055664 14.20532227 C14.15160172 14.22526749 15.23264679 14.24521271 16.34645081 14.26576233 C18.110485 14.29083107 18.110485 14.29083107 19.91015625 14.31640625 C21.70591347 14.3475779 21.70591347 14.3475779 23.53794861 14.37937927 C27.37940487 14.44500279 31.22093201 14.50381903 35.0625 14.5625 C37.65951267 14.60567305 40.25651806 14.64928693 42.85351562 14.69335938 C49.23560117 14.80069716 55.61775793 14.90243931 62 15 C62 15.33 62 15.66 62 16 C46.655 16.495 46.655 16.495 31 17 C30.67 17.66 30.34 18.32 30 19 C43.365 19.495 43.365 19.495 57 20 C57 20.66 57 21.32 57 22 C38.19 22 19.38 22 0 22 C-0.93286982 18.26852072 -1.1338245 15.37909716 -1.125 11.5625 C-1.12757812 10.45003906 -1.13015625 9.33757813 -1.1328125 8.19140625 C-1.01399223 5.33622508 -0.65353269 2.77492054 0 0 Z " fill="#9B40D3" transform="translate(18,31)"/>
<path d="M0 0 C9.45815527 4.05349511 15.70238274 9.99565484 20.03515625 19.390625 C21.56932229 23.53970564 22.31386718 27.63370025 23 32 C20.03 32 17.06 32 14 32 C13.85304688 31.38253906 13.70609375 30.76507813 13.5546875 30.12890625 C11.48138125 22.30038783 8.35446949 16.11486453 2.375 10.5625 C-2.56514051 8.27539791 -7.62721333 7.66073105 -13 7 C-13 6.67 -13 6.34 -13 6 C-8.71 6 -4.42 6 0 6 C-0.33 5.34 -0.66 4.68 -1 4 C0.32 4.33 1.64 4.66 3 5 C2.505 4.54625 2.01 4.0925 1.5 3.625 C0 2 0 2 0 0 Z " fill="#8F4CE5" transform="translate(60,5)"/>
<path d="M0 0 C3.18221864 2.23615364 3.90652264 3.67867157 5 7.4375 C5 11 5 11 3.5625 13.875 C0.60694942 16.32594438 -1.26022017 16.94358837 -5.03125 17.2109375 C-8.22582498 16.86866161 -9.85616798 15.27376123 -12 13 C-13.42662219 10.14675563 -13.31033868 8.16545451 -13 5 C-9.39029112 -0.60127241 -6.42177988 -1.70373752 0 0 Z " fill="#A827D5" transform="translate(54,61)"/>
<path d="M0 0 C2.64 0 5.28 0 8 0 C8.32871094 1.25103516 8.32871094 1.25103516 8.6640625 2.52734375 C11.06959501 11.06405059 13.72876638 19.36883188 21.375 24.5625 C22.24125 25.036875 23.1075 25.51125 24 26 C22.68 26.33 21.36 26.66 20 27 C20 26.34 20 25.68 20 25 C18.35 24.67 16.7 24.34 15 24 C15 25.65 15 27.3 15 29 C8.81675461 26.70990911 5.52852211 20.75852051 2.84765625 15.08203125 C0.86050405 10.20114589 -0.33166098 5.30657567 0 0 Z " fill="#9E39CD" transform="translate(17,60)"/>
<path d="M0 0 C10.56 0 21.12 0 32 0 C33.37502834 6.87514172 33.41334997 13.1099189 32 20 C31.34 20 30.68 20 30 20 C30 21.98 30 23.96 30 26 C29.01 26 28.02 26 27 26 C26.67 23.69 26.34 21.38 26 19 C26.33 19 26.66 19 27 19 C27.02685938 16.85423363 27.04633088 14.70837355 27.0625 12.5625 C27.07410156 11.36753906 27.08570312 10.17257813 27.09765625 8.94140625 C27.33901792 6.11126659 27.33901792 6.11126659 26 5 C24.34095995 4.85457866 22.67624262 4.77280138 21.01171875 4.71875 C19.99529297 4.68136719 18.97886719 4.64398438 17.93164062 4.60546875 C16.86107422 4.57066406 15.79050781 4.53585938 14.6875 4.5 C12.58710834 4.43096704 10.48683538 4.35819679 8.38671875 4.28125 C7.45045654 4.25095703 6.51419434 4.22066406 5.54956055 4.18945312 C3.24184839 4.01797131 1.21660684 3.64289081 -1 3 C-0.67 2.01 -0.34 1.02 0 0 Z " fill="#A32BDB" transform="translate(49,47)"/>
<path d="M0 0 C18.48 0 36.96 0 56 0 C58.68695906 13.4347953 56.95237307 25.46967706 50.18359375 37.3203125 C49 39 49 39 47 40 C47 38.02 47 36.04 47 34 C46.01 33.505 46.01 33.505 45 33 C44.67 34.98 44.34 36.96 44 39 C43.34 39 42.68 39 42 39 C42 38.34 42 37.68 42 37 C41.01 36.505 41.01 36.505 40 36 C40.40992188 35.35933594 40.81984375 34.71867187 41.2421875 34.05859375 C46.84827339 25.0593506 48.3452237 17.49365171 49 7 C49.66 7.33 50.32 7.66 51 8 C51.02707139 10.24993359 51.04642829 12.49996095 51.0625 14.75 C51.07410156 16.00296875 51.08570313 17.2559375 51.09765625 18.546875 C51 22 51 22 50.37109375 24.328125 C50.18740234 25.15570313 50.18740234 25.15570313 50 26 C50.66 26.66 51.32 27.32 52 28 C52.33 26.02 52.66 24.04 53 22 C53.66 22 54.32 22 55 22 C55.02712351 19.60408962 55.0468982 17.20849043 55.0625 14.8125 C55.07506836 13.80219727 55.07506836 13.80219727 55.08789062 12.77148438 C55.10654779 8.94676622 54.75942257 5.79711284 54 2 C36.18 1.67 18.36 1.34 0 1 C0 0.67 0 0.34 0 0 Z " fill="#A235BD" transform="translate(26,45)"/>
<path d="M0 0 C1.13211914 -0.04930664 1.13211914 -0.04930664 2.28710938 -0.09960938 C4.50390625 -0.12109375 4.50390625 -0.12109375 8.4375 0.4375 C10.96484375 2.96484375 10.96484375 2.96484375 12.4375 5.4375 C11.4475 5.4375 10.4575 5.4375 9.4375 5.4375 C9.4375 6.0975 9.4375 6.7575 9.4375 7.4375 C7.97376953 7.42009766 7.97376953 7.42009766 6.48046875 7.40234375 C5.20816406 7.39332031 3.93585937 7.38429688 2.625 7.375 C1.36042969 7.36339844 0.09585938 7.35179687 -1.20703125 7.33984375 C-4.55855237 7.27590884 -4.55855237 7.27590884 -7.5625 8.4375 C-9.89549825 8.47704234 -12.22958189 8.48151732 -14.5625 8.4375 C-14.8925 9.0975 -15.2225 9.7575 -15.5625 10.4375 C-16.5625 9.4375 -16.5625 9.4375 -16.625 6.875 C-16.604375 6.070625 -16.58375 5.26625 -16.5625 4.4375 C-15.5725 4.4375 -14.5825 4.4375 -13.5625 4.4375 C-13.5625 3.7775 -13.5625 3.1175 -13.5625 2.4375 C-9.02898384 0.19327431 -4.95302634 0.03826372 0 0 Z " fill="#8641F4" transform="translate(51.5625,4.5625)"/>
<path d="M0 0 C0.57621094 0.32613281 1.15242188 0.65226563 1.74609375 0.98828125 C0.79347656 1.04886719 -0.15914062 1.10945312 -1.140625 1.171875 C-2.39488281 1.25566406 -3.64914063 1.33945313 -4.94140625 1.42578125 C-6.18277344 1.50699219 -7.42414062 1.58820312 -8.703125 1.671875 C-11.63570962 1.93319442 -14.38832242 2.33626504 -17.25390625 2.98828125 C-17.25390625 3.64828125 -17.25390625 4.30828125 -17.25390625 4.98828125 C-18.24390625 4.98828125 -19.23390625 4.98828125 -20.25390625 4.98828125 C-19.92390625 6.63828125 -19.59390625 8.28828125 -19.25390625 9.98828125 C-17.60390625 9.65828125 -15.95390625 9.32828125 -14.25390625 8.98828125 C-14.95515625 9.48328125 -15.65640625 9.97828125 -16.37890625 10.48828125 C-22.6279967 15.92227295 -26.24741228 22.34824952 -29.25390625 29.98828125 C-29.58390625 29.98828125 -29.91390625 29.98828125 -30.25390625 29.98828125 C-30.25390625 27.67828125 -30.25390625 25.36828125 -30.25390625 22.98828125 C-29.59390625 22.98828125 -28.93390625 22.98828125 -28.25390625 22.98828125 C-28.58390625 21.99828125 -28.91390625 21.00828125 -29.25390625 19.98828125 C-28.26390625 18.99828125 -27.27390625 18.00828125 -26.25390625 16.98828125 C-26.91390625 16.65828125 -27.57390625 16.32828125 -28.25390625 15.98828125 C-25.62890625 11.11328125 -25.62890625 11.11328125 -22.25390625 9.98828125 C-22.58390625 9.32828125 -22.91390625 8.66828125 -23.25390625 7.98828125 C-25.56390625 10.62828125 -27.87390625 13.26828125 -30.25390625 15.98828125 C-30.91390625 15.65828125 -31.57390625 15.32828125 -32.25390625 14.98828125 C-25.06160786 6.04134002 -12.67210508 -5.68817195 0 0 Z " fill="#8A4FE4" transform="translate(55.25390625,4.01171875)"/>
<path d="M0 0 C3.18221864 2.23615364 3.90652264 3.67867157 5 7.4375 C5 11 5 11 3.5625 13.875 C0.61901004 16.31594289 -1.26683349 16.99696761 -5.02734375 17.28515625 C-8.42273636 16.79433712 -9.98071623 14.58720733 -12 12 C-10.02 12.495 -10.02 12.495 -8 13 C-8 13.66 -8 14.32 -8 15 C-5.36 15 -2.72 15 0 15 C-0.33 10.71 -0.66 6.42 -1 2 C-3.31 1.67 -5.62 1.34 -8 1 C-8 3.31 -8 5.62 -8 8 C-8.639375 8.12375 -9.27875 8.2475 -9.9375 8.375 C-10.618125 8.58125 -11.29875 8.7875 -12 9 C-12.33 9.66 -12.66 10.32 -13 11 C-13.35288435 7.2064932 -13.28393415 5.44058747 -11.1875 2.1875 C-7.53637316 -1.46362684 -4.79503135 -1.27215117 0 0 Z " fill="#A635CA" transform="translate(54,61)"/>
<path d="M0 0 C0.99 0.33 1.98 0.66 3 1 C3 1.66 3 2.32 3 3 C3.99 2.67 4.98 2.34 6 2 C6.66 3.32 7.32 4.64 8 6 C8.33 4.02 8.66 2.04 9 0 C11 1 11 1 12.0703125 3.6171875 C12.59238281 5.22980469 12.59238281 5.22980469 13.125 6.875 C13.47820312 7.94492187 13.83140625 9.01484375 14.1953125 10.1171875 C15 13 15 13 15 16 C12.03 16 9.06 16 6 16 C5.81824219 15.34773438 5.63648437 14.69546875 5.44921875 14.0234375 C4.02533404 9.07269989 2.50592766 4.53453577 0 0 Z " fill="#983FD7" transform="translate(68,21)"/>
<path d="M0 0 C0.22786458 2.05078125 0.45572917 4.1015625 0.68359375 6.15234375 C0.81886614 8.01140229 0.81886614 8.01140229 2 9 C3.63256758 9.15714654 5.27135338 9.25085414 6.91015625 9.31640625 C7.89951172 9.35830078 8.88886719 9.40019531 9.90820312 9.44335938 C10.94912109 9.48267578 11.99003906 9.52199219 13.0625 9.5625 C14.10728516 9.60568359 15.15207031 9.64886719 16.22851562 9.69335938 C18.81886884 9.79981225 21.40932186 9.9018276 24 10 C24 10.33 24 10.66 24 11 C17.73 11.33 11.46 11.66 5 12 C4.67 12.99 4.34 13.98 4 15 C1.03 15 -1.94 15 -5 15 C-5.6286358 4.8719787 -5.6286358 4.8719787 -3.0625 1.3125 C-1 0 -1 0 0 0 Z " fill="#9535E4" transform="translate(24,36)"/>
<path d="M0 0 C0.99 0 1.98 0 3 0 C4.70137504 6.59282829 4.35911051 13.37433627 3 20 C2.34 20 1.68 20 1 20 C1 21.98 1 23.96 1 26 C0.01 26 -0.98 26 -2 26 C-2.33 23.69 -2.66 21.38 -3 19 C-2.67 19 -2.34 19 -2 19 C-2 14.38 -2 9.76 -2 5 C-1.01 4.67 -0.02 4.34 1 4 C0.01 3.34 -0.98 2.68 -2 2 C-1.34 2 -0.68 2 0 2 C0 1.34 0 0.68 0 0 Z " fill="#A42ACE" transform="translate(78,47)"/>
<path d="M0 0 C3.76720435 1.25573478 4.64050754 2.85401006 7 6 C7.763125 6.825 8.52625 7.65 9.3125 8.5 C11 11 11 11 10.75 13.8125 C10.5025 14.534375 10.255 15.25625 10 16 C9.38125 15.34 8.7625 14.68 8.125 14 C6.24362573 11.7715451 6.24362573 11.7715451 4 12 C1.3125 9.9375 1.3125 9.9375 -1 7 C-0.8125 3.1875 -0.8125 3.1875 0 0 Z " fill="#9138E7" transform="translate(67,12)"/>
<path d="M0 0 C4.23404437 1.41134812 5.5274203 3.97998184 7.90234375 7.6328125 C9 10 9 10 8.375 13.5625 C7.92125 14.366875 7.4675 15.17125 7 16 C6.01 15.34 5.02 14.68 4 14 C4 13.34 4 12.68 4 12 C3.34 12 2.68 12 2 12 C-0.05257931 8.55166676 -1.0632763 6.68338409 -0.6875 2.625 C-0.460625 1.75875 -0.23375 0.8925 0 0 Z " fill="#AB26D2" transform="translate(23,70)"/>
<path d="M0 0 C0.66 0.33 1.32 0.66 2 1 C1.67 2.65 1.34 4.3 1 6 C0.67 5.34 0.34 4.68 0 4 C-0.66 4 -1.32 4 -2 4 C-2.5534764 6.07553648 -3 7.84365964 -3 10 C-4 13 -4 13 -5 15 C-6.65 14.67 -8.3 14.34 -10 14 C-9.58181281 9.12114941 -7.55070071 7.22040297 -4 4 C-3.236875 3.236875 -2.47375 2.47375 -1.6875 1.6875 C-1.130625 1.130625 -0.57375 0.57375 0 0 Z " fill="#873FF6" transform="translate(32,11)"/>
<path d="M0 0 C0.99 0.66 1.98 1.32 3 2 C2.67 2.66 2.34 3.32 2 4 C1.01 3.34 0.02 2.68 -1 2 C-3.32387947 1.60612212 -5.65793749 1.26513915 -8 1 C-8 3.31 -8 5.62 -8 8 C-8.639375 8.12375 -9.27875 8.2475 -9.9375 8.375 C-10.618125 8.58125 -11.29875 8.7875 -12 9 C-12.33 9.66 -12.66 10.32 -13 11 C-13.35288435 7.2064932 -13.28393415 5.44058747 -11.1875 2.1875 C-7.4940845 -1.5059155 -4.8466103 -1.11068153 0 0 Z " fill="#A247C9" transform="translate(54,61)"/>
<path d="M0 0 C3 2 3 2 3.6875 4.625 C3.8421875 5.800625 3.8421875 5.800625 4 7 C4.66 7 5.32 7 6 7 C6.99 8.485 6.99 8.485 8 10 C8.66 9.67 9.32 9.34 10 9 C10.33 10.65 10.66 12.3 11 14 C6.89789238 12.48070088 4.36869943 9.5656041 2 6 C0.6875 2.625 0.6875 2.625 0 0 Z M11 5 C15.455 7.97 15.455 7.97 20 11 C18.68 11.33 17.36 11.66 16 12 C16 11.34 16 10.68 16 10 C13.03 9.505 13.03 9.505 10 9 C10.33 7.68 10.66 6.36 11 5 Z " fill="#A334BA" transform="translate(21,75)"/>
<path d="M0 0 C0 1.98 0 3.96 0 6 C-0.66 6 -1.32 6 -2 6 C-2 7.98 -2 9.96 -2 12 C-2.99 12 -3.98 12 -5 12 C-6.21513944 5.6812749 -6.21513944 5.6812749 -5.25 2.625 C-3.80254913 0.74331387 -2.4971874 0 0 0 Z " fill="#B121CC" transform="translate(81,61)"/>
<path d="M0 0 C-0.33 0.99 -0.66 1.98 -1 3 C-6.94 3.495 -6.94 3.495 -13 4 C-13 3.34 -13 2.68 -13 2 C-8.11922548 -0.44038726 -5.47332932 -1.46845421 0 0 Z " fill="#BC1AC4" transform="translate(67,88)"/>
<path d="M0 0 C2 1 2 1 3 3.87109375 C3.33 5.04800781 3.66 6.22492188 4 7.4375 C5.18632427 12.18720707 5.18632427 12.18720707 8 16 C7.625 18.125 7.625 18.125 7 20 C3.37172342 13.34261178 0.29455112 7.65832917 0 0 Z " fill="#F9DDFE" transform="translate(25,60)"/>
<path d="M0 0 C0.99 0.33 1.98 0.66 3 1 C2.49396008 3.16874252 2.00016187 4.99967627 1 7 C0.34 7 -0.32 7 -1 7 C-1 7.66 -1 8.32 -1 9 C-1.66 9 -2.32 9 -3 9 C-3.66 7.35 -4.32 5.7 -5 4 C-4.34 4 -3.68 4 -3 4 C-2.67 4.33 -2.34 4.66 -2 5 C-1.34 3.35 -0.68 1.7 0 0 Z " fill="#BA1EC5" transform="translate(71,78)"/>
<path d="M0 0 C0.66 0.33 1.32 0.66 2 1 C2 5.62 2 10.24 2 15 C1.01 14.67 0.02 14.34 -1 14 C-0.67 9.38 -0.34 4.76 0 0 Z " fill="#A131BF" transform="translate(75,52)"/>
<path d="M0 0 C1.32 0.33 2.64 0.66 4 1 C4 1.66 4 2.32 4 3 C6.64 3 9.28 3 12 3 C12 2.34 12 1.68 12 1 C12.99 1.33 13.98 1.66 15 2 C11.88563368 4.35936842 10.34444332 5.00593868 6.375 4.9375 C3 4 3 4 1.0625 1.9375 C0.711875 1.298125 0.36125 0.65875 0 0 Z " fill="#A54ABE" transform="translate(42,73)"/>
<path d="M0 0 C2.475 0.99 2.475 0.99 5 2 C4.34 3.32 3.68 4.64 3 6 C2.01 6 1.02 6 0 6 C-0.38218767 4.34385343 -0.71395102 2.67542976 -1 1 C-0.67 0.67 -0.34 0.34 0 0 Z " fill="#B024C9" transform="translate(32,83)"/>
<path d="M0 0 C1.15518918 0.90484792 2.29885406 1.8244206 3.4375 2.75 C4.07558594 3.26046875 4.71367188 3.7709375 5.37109375 4.296875 C7.18810554 6.19667629 7.60423197 7.43586908 8 10 C7.01 10.495 7.01 10.495 6 11 C5.34 10.01 4.68 9.02 4 8 C3.01 7.34 2.02 6.68 1 6 C0.3125 2.875 0.3125 2.875 0 0 Z " fill="#8E45DB" transform="translate(69,11)"/>
<path d="M0 0 C0.99 0.33 1.98 0.66 3 1 C2.55123384 2.64846769 2.09069512 4.29373455 1.625 5.9375 C1.36976562 6.85402344 1.11453125 7.77054687 0.8515625 8.71484375 C0 11 0 11 -2 12 C-2.26252625 7.66831683 -1.29243536 4.1196377 0 0 Z " fill="#A934B9" transform="translate(79,67)"/>
<path d="M0 0 C0.66 0 1.32 0 2 0 C2 1.98 2 3.96 2 6 C0.68 6.33 -0.64 6.66 -2 7 C-1.125 1.125 -1.125 1.125 0 0 Z " fill="#AB25D4" transform="translate(79,55)"/>
<path d="M0 0 C0.99 0.33 1.98 0.66 3 1 C3 2.65 3 4.3 3 6 C1.68 5.67 0.36 5.34 -1 5 C-0.67 3.35 -0.34 1.7 0 0 Z " fill="#9039F4" transform="translate(67,12)"/>
<path d="M0 0 C1 3 1 3 0.375 5.0625 C-1 7 -1 7 -6 9 C-4.02 6.03 -2.04 3.06 0 0 Z " fill="#FAD8FC" transform="translate(77,79)"/>
</svg>
